<mxfile host="app.diagrams.net" agent="Mozilla/5.0 (Windows NT 10.0; Win64; x64) AppleWebKit/537.36 (KHTML, like Gecko) Chrome/138.0.0.0 Safari/537.36" version="28.0.1">
  <diagram name="Page-1" id="13e1069c-82ec-6db2-03f1-153e76fe0fe0">
    <mxGraphModel dx="2686" dy="784" grid="1" gridSize="10" guides="1" tooltips="1" connect="1" arrows="1" fold="1" page="1" pageScale="1" pageWidth="1100" pageHeight="850" background="none" math="0" shadow="0">
      <root>
        <mxCell id="0" />
        <mxCell id="1" parent="0" />
        <mxCell id="0TB06_-LFgy9fozSV22m-93" value="" style="endArrow=none;dashed=1;html=1;rounded=0;exitX=0.019;exitY=0.081;exitDx=0;exitDy=0;exitPerimeter=0;entryX=1.002;entryY=0.172;entryDx=0;entryDy=0;entryPerimeter=0;" edge="1" parent="1" source="0TB06_-LFgy9fozSV22m-97" target="0TB06_-LFgy9fozSV22m-90">
          <mxGeometry width="50" height="50" relative="1" as="geometry">
            <mxPoint x="-420.0000000000001" y="367.17999999999995" as="sourcePoint" />
            <mxPoint x="32.24999999999991" y="367.84000000000003" as="targetPoint" />
          </mxGeometry>
        </mxCell>
        <mxCell id="0TB06_-LFgy9fozSV22m-28" value="app_yansnet :&lt;div&gt;create_post&lt;/div&gt;" style="html=1;whiteSpace=wrap;" vertex="1" parent="1">
          <mxGeometry x="-145" y="30" width="110" height="50" as="geometry" />
        </mxCell>
        <mxCell id="0TB06_-LFgy9fozSV22m-29" value="api_yansnet" style="html=1;whiteSpace=wrap;" vertex="1" parent="1">
          <mxGeometry x="45" y="30" width="110" height="50" as="geometry" />
        </mxCell>
        <mxCell id="0TB06_-LFgy9fozSV22m-30" value="base_de_donnÃ©es" style="html=1;whiteSpace=wrap;" vertex="1" parent="1">
          <mxGeometry x="235" y="30" width="110" height="50" as="geometry" />
        </mxCell>
        <mxCell id="0TB06_-LFgy9fozSV22m-32" value="fill_informations" style="html=1;verticalAlign=bottom;endArrow=block;curved=0;rounded=0;" edge="1" parent="1">
          <mxGeometry x="-0.0667" width="80" relative="1" as="geometry">
            <mxPoint x="-244" y="230" as="sourcePoint" />
            <mxPoint x="-94" y="230" as="targetPoint" />
            <mxPoint as="offset" />
          </mxGeometry>
        </mxCell>
        <mxCell id="0TB06_-LFgy9fozSV22m-33" value="send_informations()" style="html=1;verticalAlign=bottom;endArrow=block;curved=0;rounded=0;" edge="1" parent="1">
          <mxGeometry x="-0.0667" width="80" relative="1" as="geometry">
            <mxPoint x="-86" y="395" as="sourcePoint" />
            <mxPoint x="92" y="394.9999999999999" as="targetPoint" />
            <mxPoint as="offset" />
          </mxGeometry>
        </mxCell>
        <mxCell id="0TB06_-LFgy9fozSV22m-34" value="save_post()" style="html=1;verticalAlign=bottom;endArrow=block;curved=0;rounded=0;" edge="1" parent="1" source="0TB06_-LFgy9fozSV22m-106">
          <mxGeometry x="-0.0667" width="80" relative="1" as="geometry">
            <mxPoint x="109" y="571" as="sourcePoint" />
            <mxPoint x="283" y="570" as="targetPoint" />
            <mxPoint as="offset" />
          </mxGeometry>
        </mxCell>
        <mxCell id="0TB06_-LFgy9fozSV22m-46" value="" style="shape=umlLifeline;perimeter=lifelinePerimeter;whiteSpace=wrap;html=1;container=1;dropTarget=0;collapsible=0;recursiveResize=0;outlineConnect=0;portConstraint=eastwest;newEdgeStyle={&quot;curved&quot;:0,&quot;rounded&quot;:0};participant=umlActor;" vertex="1" parent="1">
          <mxGeometry x="-261" y="32" width="21" height="650" as="geometry" />
        </mxCell>
        <mxCell id="0TB06_-LFgy9fozSV22m-95" value="" style="html=1;points=[[0,0,0,0,5],[0,1,0,0,-5],[1,0,0,0,5],[1,1,0,0,-5]];perimeter=orthogonalPerimeter;outlineConnect=0;targetShapes=umlLifeline;portConstraint=eastwest;newEdgeStyle={&quot;curved&quot;:0,&quot;rounded&quot;:0};" vertex="1" parent="0TB06_-LFgy9fozSV22m-46">
          <mxGeometry x="6" y="288" width="11" height="28" as="geometry" />
        </mxCell>
        <mxCell id="0TB06_-LFgy9fozSV22m-104" value="" style="html=1;points=[[0,0,0,0,5],[0,1,0,0,-5],[1,0,0,0,5],[1,1,0,0,-5]];perimeter=orthogonalPerimeter;outlineConnect=0;targetShapes=umlLifeline;portConstraint=eastwest;newEdgeStyle={&quot;curved&quot;:0,&quot;rounded&quot;:0};" vertex="1" parent="0TB06_-LFgy9fozSV22m-46">
          <mxGeometry x="5" y="481" width="11" height="28" as="geometry" />
        </mxCell>
        <mxCell id="0TB06_-LFgy9fozSV22m-118" value="" style="html=1;points=[[0,0,0,0,5],[0,1,0,0,-5],[1,0,0,0,5],[1,1,0,0,-5]];perimeter=orthogonalPerimeter;outlineConnect=0;targetShapes=umlLifeline;portConstraint=eastwest;newEdgeStyle={&quot;curved&quot;:0,&quot;rounded&quot;:0};" vertex="1" parent="0TB06_-LFgy9fozSV22m-46">
          <mxGeometry x="5" y="593" width="11" height="28" as="geometry" />
        </mxCell>
        <mxCell id="0TB06_-LFgy9fozSV22m-48" value="" style="html=1;points=[[0,0,0,0,5],[0,1,0,0,-5],[1,0,0,0,5],[1,1,0,0,-5]];perimeter=orthogonalPerimeter;outlineConnect=0;targetShapes=umlLifeline;portConstraint=eastwest;newEdgeStyle={&quot;curved&quot;:0,&quot;rounded&quot;:0};" vertex="1" parent="1">
          <mxGeometry x="-256" y="219" width="11" height="28" as="geometry" />
        </mxCell>
        <mxCell id="0TB06_-LFgy9fozSV22m-50" value="" style="endArrow=none;dashed=1;html=1;rounded=0;entryX=0.5;entryY=1;entryDx=0;entryDy=0;" edge="1" parent="1" source="0TB06_-LFgy9fozSV22m-98" target="0TB06_-LFgy9fozSV22m-28">
          <mxGeometry width="50" height="50" relative="1" as="geometry">
            <mxPoint x="-90" y="630" as="sourcePoint" />
            <mxPoint x="145" y="310" as="targetPoint" />
          </mxGeometry>
        </mxCell>
        <mxCell id="0TB06_-LFgy9fozSV22m-51" value="" style="html=1;points=[[0,0,0,0,5],[0,1,0,0,-5],[1,0,0,0,5],[1,1,0,0,-5]];perimeter=orthogonalPerimeter;outlineConnect=0;targetShapes=umlLifeline;portConstraint=eastwest;newEdgeStyle={&quot;curved&quot;:0,&quot;rounded&quot;:0};" vertex="1" parent="1">
          <mxGeometry x="-95" y="208" width="10" height="212" as="geometry" />
        </mxCell>
        <mxCell id="0TB06_-LFgy9fozSV22m-56" value="" style="endArrow=none;dashed=1;html=1;rounded=0;entryX=0.5;entryY=1;entryDx=0;entryDy=0;" edge="1" parent="1">
          <mxGeometry width="50" height="50" relative="1" as="geometry">
            <mxPoint x="100" y="690" as="sourcePoint" />
            <mxPoint x="100" y="79.99999999999989" as="targetPoint" />
          </mxGeometry>
        </mxCell>
        <mxCell id="0TB06_-LFgy9fozSV22m-57" value="" style="html=1;points=[[0,0,0,0,5],[0,1,0,0,-5],[1,0,0,0,5],[1,1,0,0,-5]];perimeter=orthogonalPerimeter;outlineConnect=0;targetShapes=umlLifeline;portConstraint=eastwest;newEdgeStyle={&quot;curved&quot;:0,&quot;rounded&quot;:0};" vertex="1" parent="1">
          <mxGeometry x="94" y="380" width="10" height="130" as="geometry" />
        </mxCell>
        <mxCell id="0TB06_-LFgy9fozSV22m-62" value="" style="endArrow=none;dashed=1;html=1;rounded=0;entryX=0.5;entryY=1;entryDx=0;entryDy=0;" edge="1" parent="1">
          <mxGeometry width="50" height="50" relative="1" as="geometry">
            <mxPoint x="289" y="673.809552873884" as="sourcePoint" />
            <mxPoint x="289.28999999999996" y="79.99999999999989" as="targetPoint" />
          </mxGeometry>
        </mxCell>
        <mxCell id="0TB06_-LFgy9fozSV22m-64" value="" style="html=1;points=[[0,0,0,0,5],[0,1,0,0,-5],[1,0,0,0,5],[1,1,0,0,-5]];perimeter=orthogonalPerimeter;outlineConnect=0;targetShapes=umlLifeline;portConstraint=eastwest;newEdgeStyle={&quot;curved&quot;:0,&quot;rounded&quot;:0};" vertex="1" parent="1">
          <mxGeometry x="285" y="556" width="10" height="44" as="geometry" />
        </mxCell>
        <mxCell id="0TB06_-LFgy9fozSV22m-73" value="Authentification" style="text;html=1;align=center;verticalAlign=middle;resizable=0;points=[];autosize=1;strokeColor=none;fillColor=none;" vertex="1" parent="1">
          <mxGeometry x="-40" y="128" width="110" height="30" as="geometry" />
        </mxCell>
        <mxCell id="0TB06_-LFgy9fozSV22m-72" value="ref" style="shape=umlFrame;whiteSpace=wrap;html=1;pointerEvents=0;fillColor=#FFFFFF;" vertex="1" parent="1">
          <mxGeometry x="-285" y="90" width="650" height="110" as="geometry" />
        </mxCell>
        <mxCell id="0TB06_-LFgy9fozSV22m-81" value="" style="edgeStyle=orthogonalEdgeStyle;rounded=0;orthogonalLoop=1;jettySize=auto;html=1;curved=0;entryX=1;entryY=0.886;entryDx=0;entryDy=0;entryPerimeter=0;" edge="1" parent="1">
          <mxGeometry relative="1" as="geometry">
            <mxPoint x="-84" y="243.00000000000023" as="sourcePoint" />
            <mxPoint x="-84" y="276.9680000000001" as="targetPoint" />
            <Array as="points">
              <mxPoint x="-34" y="243" />
              <mxPoint x="-34" y="278" />
              <mxPoint x="-74" y="278" />
            </Array>
          </mxGeometry>
        </mxCell>
        <mxCell id="0TB06_-LFgy9fozSV22m-82" value="information_verification" style="edgeLabel;html=1;align=center;verticalAlign=middle;resizable=0;points=[];" vertex="1" connectable="0" parent="0TB06_-LFgy9fozSV22m-81">
          <mxGeometry x="-0.0877" y="1" relative="1" as="geometry">
            <mxPoint x="10" y="6" as="offset" />
          </mxGeometry>
        </mxCell>
        <mxCell id="0TB06_-LFgy9fozSV22m-87" value="" style="edgeStyle=orthogonalEdgeStyle;rounded=0;orthogonalLoop=1;jettySize=auto;html=1;curved=0;entryX=1;entryY=0.886;entryDx=0;entryDy=0;entryPerimeter=0;" edge="1" parent="1">
          <mxGeometry relative="1" as="geometry">
            <mxPoint x="105" y="410.0000000000002" as="sourcePoint" />
            <mxPoint x="105" y="443.9680000000001" as="targetPoint" />
            <Array as="points">
              <mxPoint x="155" y="410" />
              <mxPoint x="155" y="445" />
              <mxPoint x="115" y="445" />
            </Array>
          </mxGeometry>
        </mxCell>
        <mxCell id="0TB06_-LFgy9fozSV22m-88" value="user_verification" style="edgeLabel;html=1;align=center;verticalAlign=middle;resizable=0;points=[];" vertex="1" connectable="0" parent="0TB06_-LFgy9fozSV22m-87">
          <mxGeometry x="-0.0877" y="1" relative="1" as="geometry">
            <mxPoint x="10" as="offset" />
          </mxGeometry>
        </mxCell>
        <mxCell id="0TB06_-LFgy9fozSV22m-90" value="alt" style="shape=umlFrame;whiteSpace=wrap;html=1;pointerEvents=0;" vertex="1" parent="1">
          <mxGeometry x="-435" y="300" width="835" height="370" as="geometry" />
        </mxCell>
        <mxCell id="0TB06_-LFgy9fozSV22m-91" value="&lt;font style=&quot;font-size: 10px;&quot;&gt;[if informations not valid]&lt;/font&gt;" style="text;html=1;align=center;verticalAlign=middle;resizable=0;points=[];autosize=1;strokeColor=none;fillColor=none;" vertex="1" parent="1">
          <mxGeometry x="-385" y="300" width="130" height="30" as="geometry" />
        </mxCell>
        <mxCell id="0TB06_-LFgy9fozSV22m-96" value="error_message" style="html=1;verticalAlign=bottom;endArrow=open;dashed=1;endSize=8;curved=0;rounded=0;" edge="1" parent="1">
          <mxGeometry relative="1" as="geometry">
            <mxPoint x="-95" y="337" as="sourcePoint" />
            <mxPoint x="-245" y="337" as="targetPoint" />
          </mxGeometry>
        </mxCell>
        <mxCell id="0TB06_-LFgy9fozSV22m-97" value="&lt;font style=&quot;font-size: 10px;&quot;&gt;[else]&lt;/font&gt;" style="text;html=1;align=center;verticalAlign=middle;resizable=0;points=[];autosize=1;strokeColor=none;fillColor=none;" vertex="1" parent="1">
          <mxGeometry x="-435" y="360" width="50" height="30" as="geometry" />
        </mxCell>
        <mxCell id="0TB06_-LFgy9fozSV22m-99" value="" style="endArrow=none;dashed=1;html=1;rounded=0;entryX=0.5;entryY=1;entryDx=0;entryDy=0;" edge="1" parent="1" source="0TB06_-LFgy9fozSV22m-115" target="0TB06_-LFgy9fozSV22m-98">
          <mxGeometry width="50" height="50" relative="1" as="geometry">
            <mxPoint x="-89" y="700" as="sourcePoint" />
            <mxPoint x="-90" y="80" as="targetPoint" />
          </mxGeometry>
        </mxCell>
        <mxCell id="0TB06_-LFgy9fozSV22m-98" value="" style="html=1;points=[[0,0,0,0,5],[0,1,0,0,-5],[1,0,0,0,5],[1,1,0,0,-5]];perimeter=orthogonalPerimeter;outlineConnect=0;targetShapes=umlLifeline;portConstraint=eastwest;newEdgeStyle={&quot;curved&quot;:0,&quot;rounded&quot;:0};" vertex="1" parent="1">
          <mxGeometry x="-96" y="479" width="11" height="61" as="geometry" />
        </mxCell>
        <mxCell id="0TB06_-LFgy9fozSV22m-100" value="alt" style="shape=umlFrame;whiteSpace=wrap;html=1;pointerEvents=0;" vertex="1" parent="1">
          <mxGeometry x="-400" y="450" width="770" height="210" as="geometry" />
        </mxCell>
        <mxCell id="0TB06_-LFgy9fozSV22m-101" value="&lt;font style=&quot;font-size: 10px;&quot;&gt;[if user not valid]&lt;/font&gt;" style="text;html=1;align=center;verticalAlign=middle;resizable=0;points=[];autosize=1;strokeColor=none;fillColor=none;" vertex="1" parent="1">
          <mxGeometry x="-345" y="445.5" width="100" height="30" as="geometry" />
        </mxCell>
        <mxCell id="0TB06_-LFgy9fozSV22m-102" value="not_valid_user()" style="html=1;verticalAlign=bottom;endArrow=open;dashed=1;endSize=8;curved=0;rounded=0;" edge="1" parent="1">
          <mxGeometry relative="1" as="geometry">
            <mxPoint x="94" y="496" as="sourcePoint" />
            <mxPoint x="-85" y="496" as="targetPoint" />
          </mxGeometry>
        </mxCell>
        <mxCell id="0TB06_-LFgy9fozSV22m-105" value="error_message" style="html=1;verticalAlign=bottom;endArrow=open;dashed=1;endSize=8;curved=0;rounded=0;entryX=0.966;entryY=0.665;entryDx=0;entryDy=0;entryPerimeter=0;" edge="1" parent="1" source="0TB06_-LFgy9fozSV22m-98" target="0TB06_-LFgy9fozSV22m-104">
          <mxGeometry relative="1" as="geometry">
            <mxPoint x="-95" y="519.69" as="sourcePoint" />
            <mxPoint x="-230" y="530" as="targetPoint" />
          </mxGeometry>
        </mxCell>
        <mxCell id="0TB06_-LFgy9fozSV22m-106" value="" style="html=1;points=[[0,0,0,0,5],[0,1,0,0,-5],[1,0,0,0,5],[1,1,0,0,-5]];perimeter=orthogonalPerimeter;outlineConnect=0;targetShapes=umlLifeline;portConstraint=eastwest;newEdgeStyle={&quot;curved&quot;:0,&quot;rounded&quot;:0};" vertex="1" parent="1">
          <mxGeometry x="94" y="555" width="11" height="65" as="geometry" />
        </mxCell>
        <mxCell id="0TB06_-LFgy9fozSV22m-110" value="" style="endArrow=none;dashed=1;html=1;rounded=0;entryX=0.998;entryY=0.657;entryDx=0;entryDy=0;entryPerimeter=0;exitX=0.001;exitY=0.669;exitDx=0;exitDy=0;exitPerimeter=0;" edge="1" parent="1">
          <mxGeometry width="50" height="50" relative="1" as="geometry">
            <mxPoint x="-399.23" y="548.6600000000001" as="sourcePoint" />
            <mxPoint x="368.46000000000004" y="546.98" as="targetPoint" />
          </mxGeometry>
        </mxCell>
        <mxCell id="0TB06_-LFgy9fozSV22m-111" value="&lt;font style=&quot;font-size: 10px;&quot;&gt;[else]&lt;/font&gt;" style="text;html=1;align=center;verticalAlign=middle;resizable=0;points=[];autosize=1;strokeColor=none;fillColor=none;" vertex="1" parent="1">
          <mxGeometry x="-395" y="550" width="50" height="30" as="geometry" />
        </mxCell>
        <mxCell id="0TB06_-LFgy9fozSV22m-113" value="post_validate" style="html=1;verticalAlign=bottom;endArrow=open;dashed=1;endSize=8;curved=0;rounded=0;entryX=1.126;entryY=0.719;entryDx=0;entryDy=0;entryPerimeter=0;" edge="1" parent="1" source="0TB06_-LFgy9fozSV22m-64" target="0TB06_-LFgy9fozSV22m-106">
          <mxGeometry relative="1" as="geometry">
            <mxPoint x="240" y="590" as="sourcePoint" />
            <mxPoint x="160" y="590" as="targetPoint" />
          </mxGeometry>
        </mxCell>
        <mxCell id="0TB06_-LFgy9fozSV22m-114" value="send_post" style="html=1;verticalAlign=bottom;endArrow=open;dashed=1;endSize=8;curved=0;rounded=0;" edge="1" parent="1">
          <mxGeometry relative="1" as="geometry">
            <mxPoint x="94" y="614" as="sourcePoint" />
            <mxPoint x="-85" y="614" as="targetPoint" />
          </mxGeometry>
        </mxCell>
        <mxCell id="0TB06_-LFgy9fozSV22m-116" value="" style="endArrow=none;dashed=1;html=1;rounded=0;entryX=0.5;entryY=1;entryDx=0;entryDy=0;" edge="1" parent="1" target="0TB06_-LFgy9fozSV22m-115">
          <mxGeometry width="50" height="50" relative="1" as="geometry">
            <mxPoint x="-89" y="700" as="sourcePoint" />
            <mxPoint x="-90" y="540" as="targetPoint" />
          </mxGeometry>
        </mxCell>
        <mxCell id="0TB06_-LFgy9fozSV22m-115" value="" style="html=1;points=[[0,0,0,0,5],[0,1,0,0,-5],[1,0,0,0,5],[1,1,0,0,-5]];perimeter=orthogonalPerimeter;outlineConnect=0;targetShapes=umlLifeline;portConstraint=eastwest;newEdgeStyle={&quot;curved&quot;:0,&quot;rounded&quot;:0};" vertex="1" parent="1">
          <mxGeometry x="-96" y="592" width="11" height="61" as="geometry" />
        </mxCell>
        <mxCell id="0TB06_-LFgy9fozSV22m-117" value="post_page" style="html=1;verticalAlign=bottom;endArrow=open;dashed=1;endSize=8;curved=0;rounded=0;" edge="1" parent="1">
          <mxGeometry relative="1" as="geometry">
            <mxPoint x="-100" y="640" as="sourcePoint" />
            <mxPoint x="-245" y="640" as="targetPoint" />
          </mxGeometry>
        </mxCell>
        <mxCell id="0TB06_-LFgy9fozSV22m-119" value="Etudiant" style="text;html=1;align=center;verticalAlign=middle;resizable=0;points=[];autosize=1;strokeColor=none;fillColor=none;" vertex="1" parent="1">
          <mxGeometry x="-285.5" y="65" width="70" height="30" as="geometry" />
        </mxCell>
      </root>
    </mxGraphModel>
  </diagram>
</mxfile>
